<mxfile host="app.diagrams.net" modified="2020-09-12T07:58:53.505Z" agent="5.0 (Windows)" etag="AabMnPoO9Bjgh91mxeJ0" version="13.6.10" type="github">
  <diagram id="umo9cG9MLXXI8rUUPrn1" name="Page-1">
    <mxGraphModel dx="910" dy="487" grid="1" gridSize="10" guides="1" tooltips="1" connect="1" arrows="1" fold="1" page="1" pageScale="1" pageWidth="1169" pageHeight="827" math="0" shadow="0">
      <root>
        <mxCell id="0" />
        <mxCell id="1" parent="0" />
        <mxCell id="OejCFrRj7skPWis9vDw2-1" value="Pensions Dependant Cases -Â  Controller of Budget" style="swimlane;" parent="1" vertex="1">
          <mxGeometry x="20" y="20" width="1110" height="770" as="geometry" />
        </mxCell>
        <mxCell id="LBPJEfMc7nqpodbqVMFa-1" value="Start" style="rounded=1;whiteSpace=wrap;html=1;fontSize=10;" vertex="1" parent="OejCFrRj7skPWis9vDw2-1">
          <mxGeometry x="550" y="30" width="120" height="60" as="geometry" />
        </mxCell>
        <mxCell id="LBPJEfMc7nqpodbqVMFa-4" value="The Controller of Budget accesses the system to validate the assessed award" style="rounded=0;whiteSpace=wrap;html=1;fontSize=10;" vertex="1" parent="OejCFrRj7skPWis9vDw2-1">
          <mxGeometry x="550" y="170" width="120" height="60" as="geometry" />
        </mxCell>
        <mxCell id="LBPJEfMc7nqpodbqVMFa-3" value="" style="edgeStyle=orthogonalEdgeStyle;rounded=0;orthogonalLoop=1;jettySize=auto;html=1;fontSize=10;entryX=0.5;entryY=0;entryDx=0;entryDy=0;" edge="1" parent="OejCFrRj7skPWis9vDw2-1" source="LBPJEfMc7nqpodbqVMFa-1" target="LBPJEfMc7nqpodbqVMFa-4">
          <mxGeometry relative="1" as="geometry">
            <mxPoint x="610" y="170" as="targetPoint" />
          </mxGeometry>
        </mxCell>
        <mxCell id="LBPJEfMc7nqpodbqVMFa-12" value="End" style="rounded=1;whiteSpace=wrap;html=1;fontSize=10;" vertex="1" parent="OejCFrRj7skPWis9vDw2-1">
          <mxGeometry x="550" y="610" width="120" height="60" as="geometry" />
        </mxCell>
        <mxCell id="LBPJEfMc7nqpodbqVMFa-13" value="yes" style="text;html=1;strokeColor=none;fillColor=none;align=center;verticalAlign=middle;whiteSpace=wrap;rounded=0;fontSize=10;" vertex="1" parent="OejCFrRj7skPWis9vDw2-1">
          <mxGeometry x="606" y="410" width="40" height="20" as="geometry" />
        </mxCell>
        <mxCell id="LBPJEfMc7nqpodbqVMFa-16" value="Return to directorate with remarks" style="rounded=0;whiteSpace=wrap;html=1;" vertex="1" parent="OejCFrRj7skPWis9vDw2-1">
          <mxGeometry x="340" y="310" width="120" height="60" as="geometry" />
        </mxCell>
        <mxCell id="LBPJEfMc7nqpodbqVMFa-18" value="" style="edgeStyle=orthogonalEdgeStyle;rounded=0;orthogonalLoop=1;jettySize=auto;html=1;fontSize=10;entryX=0;entryY=0.5;entryDx=0;entryDy=0;" edge="1" parent="OejCFrRj7skPWis9vDw2-1" source="LBPJEfMc7nqpodbqVMFa-16" target="LBPJEfMc7nqpodbqVMFa-4">
          <mxGeometry relative="1" as="geometry">
            <mxPoint x="400" y="230" as="targetPoint" />
            <Array as="points">
              <mxPoint x="400" y="200" />
            </Array>
          </mxGeometry>
        </mxCell>
        <mxCell id="LBPJEfMc7nqpodbqVMFa-19" value="no" style="text;html=1;strokeColor=none;fillColor=none;align=center;verticalAlign=middle;whiteSpace=wrap;rounded=0;fontSize=10;" vertex="1" parent="OejCFrRj7skPWis9vDw2-1">
          <mxGeometry x="500" y="318" width="40" height="20" as="geometry" />
        </mxCell>
        <mxCell id="LBPJEfMc7nqpodbqVMFa-15" value="" style="edgeStyle=orthogonalEdgeStyle;rounded=0;orthogonalLoop=1;jettySize=auto;html=1;fontSize=10;" edge="1" parent="OejCFrRj7skPWis9vDw2-1" source="LBPJEfMc7nqpodbqVMFa-5" target="LBPJEfMc7nqpodbqVMFa-16">
          <mxGeometry relative="1" as="geometry">
            <mxPoint x="460" y="340" as="targetPoint" />
          </mxGeometry>
        </mxCell>
        <mxCell id="LBPJEfMc7nqpodbqVMFa-5" value="Approved?" style="rhombus;whiteSpace=wrap;html=1;rounded=0;fontSize=10;" vertex="1" parent="OejCFrRj7skPWis9vDw2-1">
          <mxGeometry x="570" y="300" width="80" height="80" as="geometry" />
        </mxCell>
        <mxCell id="LBPJEfMc7nqpodbqVMFa-6" value="" style="edgeStyle=orthogonalEdgeStyle;rounded=0;orthogonalLoop=1;jettySize=auto;html=1;fontSize=10;" edge="1" parent="OejCFrRj7skPWis9vDw2-1" source="LBPJEfMc7nqpodbqVMFa-4" target="LBPJEfMc7nqpodbqVMFa-5">
          <mxGeometry relative="1" as="geometry" />
        </mxCell>
        <mxCell id="LBPJEfMc7nqpodbqVMFa-10" value="" style="edgeStyle=orthogonalEdgeStyle;rounded=0;orthogonalLoop=1;jettySize=auto;html=1;fontSize=10;" edge="1" parent="OejCFrRj7skPWis9vDw2-1" source="LBPJEfMc7nqpodbqVMFa-7">
          <mxGeometry relative="1" as="geometry">
            <mxPoint x="610" y="610" as="targetPoint" />
          </mxGeometry>
        </mxCell>
        <mxCell id="LBPJEfMc7nqpodbqVMFa-7" value="Append signature and forward to payroll" style="whiteSpace=wrap;html=1;rounded=0;fontSize=10;" vertex="1" parent="OejCFrRj7skPWis9vDw2-1">
          <mxGeometry x="550" y="470" width="120" height="60" as="geometry" />
        </mxCell>
        <mxCell id="LBPJEfMc7nqpodbqVMFa-8" value="" style="edgeStyle=orthogonalEdgeStyle;rounded=0;orthogonalLoop=1;jettySize=auto;html=1;fontSize=10;" edge="1" parent="OejCFrRj7skPWis9vDw2-1" source="LBPJEfMc7nqpodbqVMFa-5" target="LBPJEfMc7nqpodbqVMFa-7">
          <mxGeometry relative="1" as="geometry" />
        </mxCell>
      </root>
    </mxGraphModel>
  </diagram>
</mxfile>
